<svg width="104" height="104" viewBox="0 0 104 104" fill="none" xmlns="http://www.w3.org/2000/svg">
<g clip-path="url(#clip0_24085_290)">
<rect width="104" height="104" rx="12" fill="white"/>
<path d="M45.5 52.1462C47.1756 50.1321 49.2844 49.125 51.8267 49.125C54.4844 49.125 56.6222 50.1321 58.24 52.1462C59.9156 54.0953 60.7533 56.8241 60.7533 60.3325C60.7533 63.9059 59.9156 66.6997 58.24 68.7138C56.6222 70.6629 54.4844 71.6375 51.8267 71.6375C49.2844 71.6375 47.1756 70.6304 45.5 68.6163C43.8244 66.6022 42.9867 63.841 42.9867 60.3325C42.9867 56.8891 43.8244 54.1603 45.5 52.1462Z" fill="#E35335"/>
<path fill-rule="evenodd" clip-rule="evenodd" d="M10.4 0C4.65624 0 0 4.65624 0 10.4V93.6C0 99.3438 4.65624 104 10.4 104H93.6C99.3438 104 104 99.3438 104 93.6V10.4C104 4.65624 99.3438 0 93.6 0H10.4ZM67.9467 35.7735C64.8267 33.4995 61.3311 32.3625 57.46 32.3625C54.0511 32.3625 51.1044 33.2071 48.62 34.8964C46.1356 36.5207 44.2867 38.7947 43.0733 41.7183V18.3071C43.0733 16.812 41.9955 15.6 40.6659 15.6H28.4074C27.0778 15.6 26 16.812 26 18.3071V85.0107C26 86.5058 27.0778 87.7178 28.4074 87.7178H40.6659C41.9955 87.7178 43.0733 86.5058 43.0733 85.0107V79.0442C44.2867 81.9679 46.1356 84.2743 48.62 85.9636C51.1044 87.5879 54.0511 88.4 57.46 88.4C61.3311 88.4 64.8267 87.2955 67.9467 85.0865C71.0667 82.8125 73.5222 79.5639 75.3133 75.3408C77.1044 71.0527 78 66.05 78 60.3325C78 54.6151 77.1044 49.6448 75.3133 45.4217C73.5222 41.1986 71.0667 37.9825 67.9467 35.7735Z" fill="#E35335"/>
</g>
<defs>
<clipPath id="clip0_24085_290">
<rect width="104" height="104" rx="12" fill="white"/>
</clipPath>
</defs>
</svg>